# Blender 4.3.1
# www.blender.org
mtllib Drum.mtl
o Cylinder
v 0.000000 -0.216888 -1.000000
v 0.000000 0.985087 -1.000000
v 0.707107 -0.216888 -0.707107
v 0.707107 0.985087 -0.707107
v 1.000000 -0.216888 0.000000
v 1.000000 0.985087 0.000000
v 0.707107 -0.216888 0.707107
v 0.707107 0.985087 0.707107
v 0.000000 -0.216888 1.000000
v 0.000000 0.985087 1.000000
v -0.707107 -0.216888 0.707107
v -0.707107 0.985087 0.707107
v -1.000000 -0.216888 0.000000
v -1.000000 0.985087 0.000000
v -0.707107 -0.216888 -0.707107
v -0.707107 0.985087 -0.707107
v 0.000000 0.149880 -1.168214
v -0.000000 0.384099 -1.258984
v 0.000000 0.618319 -1.168214
v 0.826052 0.618319 -0.826052
v 0.890236 0.384099 -0.890236
v 0.826052 0.149880 -0.826052
v 1.168214 0.618319 0.000000
v 1.258984 0.384099 0.000000
v 1.168214 0.149880 0.000000
v 0.826052 0.618319 0.826052
v 0.890236 0.384099 0.890236
v 0.826052 0.149880 0.826052
v 0.000000 0.618319 1.168214
v -0.000000 0.384099 1.258984
v 0.000000 0.149880 1.168214
v -0.826052 0.618319 0.826052
v -0.890236 0.384099 0.890236
v -0.826052 0.149880 0.826052
v -1.168214 0.618319 0.000000
v -1.258984 0.384099 0.000000
v -1.168214 0.149880 0.000000
v -0.826052 0.618319 -0.826052
v -0.890236 0.384099 -0.890236
v -0.826052 0.149880 -0.826052
vn -0.0000 -0.9245 -0.3812
vn -0.0000 0.9245 -0.3812
vn 0.2695 -0.9245 -0.2695
vn 0.2695 0.9245 -0.2695
vn 0.3812 -0.9245 -0.0000
vn 0.3812 0.9245 -0.0000
vn 0.2695 -0.9245 0.2695
vn 0.2695 0.9245 0.2695
vn -0.0000 -0.9245 0.3812
vn -0.0000 0.9245 0.3812
vn -0.2695 -0.9245 0.2695
vn -0.2695 0.9245 0.2695
vn -0.3812 -0.9245 -0.0000
vn -0.3812 0.9245 -0.0000
vn -0.2695 -0.9245 -0.2695
vn -0.2695 0.9245 -0.2695
vn -0.0000 -0.3885 -0.9215
vn -0.0000 -0.0000 -1.0000
vn -0.0000 0.3885 -0.9215
vn 0.6516 0.3885 -0.6516
vn 0.7071 -0.0000 -0.7071
vn 0.6516 -0.3885 -0.6516
vn 0.9215 0.3885 -0.0000
vn 1.0000 -0.0000 -0.0000
vn 0.9215 -0.3885 -0.0000
vn 0.6516 0.3885 0.6516
vn 0.7071 -0.0000 0.7071
vn 0.6516 -0.3885 0.6516
vn -0.0000 0.3885 0.9215
vn -0.0000 -0.0000 1.0000
vn -0.0000 -0.3885 0.9215
vn -0.6516 0.3885 0.6516
vn -0.7071 -0.0000 0.7071
vn -0.6516 -0.3885 0.6516
vn -0.9215 0.3885 -0.0000
vn -1.0000 -0.0000 -0.0000
vn -0.9215 -0.3885 -0.0000
vn -0.6516 0.3885 -0.6516
vn -0.7071 -0.0000 -0.7071
vn -0.6516 -0.3885 -0.6516
vt 0.254667 0.315860
vt 0.254667 0.439072
vt 0.135144 0.439072
vt 0.135144 0.315860
vt 0.015620 0.439072
vt 0.015620 0.315860
vt 0.971809 0.315860
vt 0.971809 0.439072
vt 0.852286 0.439072
vt 0.852285 0.315860
vt 0.732762 0.439072
vt 0.732762 0.315860
vt 0.613238 0.439072
vt 0.613238 0.315860
vt 0.493715 0.439072
vt 0.493715 0.315860
vt 0.888487 0.933807
vt 0.780776 0.933807
vt 0.704613 0.857644
vt 0.704613 0.749933
vt 0.780776 0.673770
vt 0.888487 0.673770
vt 0.964650 0.749933
vt 0.964650 0.857644
vt 0.374191 0.439072
vt 0.374191 0.315860
vt 0.444336 0.749933
vt 0.520499 0.673770
vt 0.628210 0.673770
vt 0.704373 0.749933
vt 0.704373 0.857644
vt 0.628210 0.933807
vt 0.520499 0.933807
vt 0.444336 0.857644
vt 0.374191 0.036018
vt 0.374191 0.159231
vt 0.254667 0.159231
vt 0.254667 0.036018
vt 0.374191 0.237545
vt 0.254667 0.237545
vt 0.493715 0.036018
vt 0.493715 0.159231
vt 0.493715 0.237545
vt 0.613238 0.036018
vt 0.613238 0.159231
vt 0.613238 0.237545
vt 0.732762 0.036018
vt 0.732762 0.159231
vt 0.732762 0.237545
vt 0.852286 0.036018
vt 0.852286 0.159231
vt 0.852285 0.237545
vt 0.971809 0.036018
vt 0.971809 0.159231
vt 0.971809 0.237545
vt 0.135144 0.036018
vt 0.135144 0.159231
vt 0.015620 0.159231
vt 0.015620 0.036018
vt 0.135144 0.237545
vt 0.015620 0.237545
s 1
usemtl Material.001
f 19/1/19 2/2/2 4/3/4 20/4/20
f 20/4/20 4/3/4 6/5/6 23/6/23
f 23/7/23 6/8/6 8/9/8 26/10/26
f 26/10/26 8/9/8 10/11/10 29/12/29
f 29/12/29 10/11/10 12/13/12 32/14/32
f 32/14/32 12/13/12 14/15/14 35/16/35
f 4/17/4 2/18/2 16/19/16 14/20/14 12/21/12 10/22/10 8/23/8 6/24/6
f 35/16/35 14/15/14 16/25/16 38/26/38
f 38/26/38 16/25/16 2/2/2 19/1/19
f 1/27/1 3/28/3 5/29/5 7/30/7 9/31/9 11/32/11 13/33/13 15/34/15
f 15/35/15 40/36/40 17/37/17 1/38/1
f 40/36/40 39/39/39 18/40/18 17/37/17
f 39/39/39 38/26/38 19/1/19 18/40/18
f 13/41/13 37/42/37 40/36/40 15/35/15
f 37/42/37 36/43/36 39/39/39 40/36/40
f 36/43/36 35/16/35 38/26/38 39/39/39
f 11/44/11 34/45/34 37/42/37 13/41/13
f 34/45/34 33/46/33 36/43/36 37/42/37
f 33/46/33 32/14/32 35/16/35 36/43/36
f 9/47/9 31/48/31 34/45/34 11/44/11
f 31/48/31 30/49/30 33/46/33 34/45/34
f 30/49/30 29/12/29 32/14/32 33/46/33
f 7/50/7 28/51/28 31/48/31 9/47/9
f 28/51/28 27/52/27 30/49/30 31/48/31
f 27/52/27 26/10/26 29/12/29 30/49/30
f 5/53/5 25/54/25 28/51/28 7/50/7
f 25/54/25 24/55/24 27/52/27 28/51/28
f 24/55/24 23/7/23 26/10/26 27/52/27
f 3/56/3 22/57/22 25/58/25 5/59/5
f 22/57/22 21/60/21 24/61/24 25/58/25
f 21/60/21 20/4/20 23/6/23 24/61/24
f 1/38/1 17/37/17 22/57/22 3/56/3
f 17/37/17 18/40/18 21/60/21 22/57/22
f 18/40/18 19/1/19 20/4/20 21/60/21
