# Blender 4.3.0
# www.blender.org
mtllib Fire Bottle.mtl
o Cylinder
v 0.000000 7.031128 -1.000000
v 0.000000 8.767773 -0.859708
v 0.587785 7.031128 -0.809017
v 0.505324 8.767773 -0.695519
v 0.951057 7.031128 -0.309017
v 0.817631 8.767773 -0.265665
v 0.951057 7.031128 0.309017
v 0.817631 8.767773 0.265665
v 0.587785 7.031128 0.809017
v 0.505324 8.767773 0.695519
v 0.000000 7.031128 1.000000
v 0.000000 8.767773 0.859708
v -0.587785 7.031128 0.809017
v -0.505324 8.767773 0.695519
v -0.951057 7.031128 0.309017
v -0.817631 8.767773 0.265665
v -0.951057 7.031128 -0.309017
v -0.817631 8.767773 -0.265665
v -0.587785 7.031128 -0.809017
v -0.505324 8.767773 -0.695519
v 0.000000 6.743876 -1.169322
v 0.687311 6.743876 -0.946002
v 1.112092 6.743876 -0.361341
v 1.112092 6.743876 0.361341
v 0.687311 6.743876 0.946002
v 0.000000 6.743876 1.169322
v -0.687311 6.743876 0.946002
v -1.112092 6.743876 0.361341
v -1.112092 6.743876 -0.361341
v -0.687311 6.743876 -0.946002
v 0.000000 6.467372 -1.351604
v 0.794453 6.467372 -1.093471
v 1.285452 6.467372 -0.417669
v 1.285452 6.467372 0.417669
v 0.794453 6.467372 1.093471
v 0.000000 6.467372 1.351604
v -0.794453 6.467372 1.093471
v -1.285452 6.467372 0.417669
v -1.285452 6.467372 -0.417669
v -0.794453 6.467372 -1.093471
v 0.000000 6.225174 -1.526042
v 0.896985 6.225174 -1.234594
v 1.451352 6.225174 -0.471573
v 1.451352 6.225174 0.471573
v 0.896985 6.225174 1.234594
v 0.000000 6.225174 1.526042
v -0.896985 6.225174 1.234594
v -1.451352 6.225174 0.471573
v -1.451352 6.225174 -0.471573
v -0.896985 6.225174 -1.234594
v 0.000000 5.957462 -1.748253
v 1.027598 5.957462 -1.414366
v 1.662688 5.957462 -0.540240
v 1.662688 5.957462 0.540240
v 1.027598 5.957462 1.414366
v 0.000000 5.957462 1.748253
v -1.027597 5.957462 1.414366
v -1.662688 5.957462 0.540240
v -1.662688 5.957462 -0.540240
v -1.027597 5.957462 -1.414366
v 0.000000 5.443450 -2.102080
v 1.235572 5.443450 -1.700618
v 1.999197 5.443450 -0.649578
v 1.999197 5.443450 0.649578
v 1.235572 5.443450 1.700618
v 0.000000 5.443450 2.102080
v -1.235572 5.443450 1.700618
v -1.999197 5.443450 0.649578
v -1.999197 5.443450 -0.649578
v -1.235572 5.443450 -1.700618
v -0.000000 0.750097 -1.619474
v -0.000000 1.209082 -2.102080
v 1.235571 1.209082 -1.700618
v 0.951903 0.750097 -1.310182
v 1.999196 1.209082 -0.649578
v 1.540211 0.750097 -0.500445
v 1.999196 1.209082 0.649578
v 1.540211 0.750097 0.500445
v 1.235571 1.209082 1.700618
v 0.951903 0.750097 1.310182
v -0.000000 1.209082 2.102080
v -0.000000 0.750097 1.619474
v -1.235572 1.209082 1.700618
v -0.951903 0.750097 1.310182
v -1.999197 1.209082 0.649578
v -1.540212 0.750097 0.500445
v -1.999197 1.209082 -0.649578
v -1.540212 0.750097 -0.500445
v -1.235572 1.209082 -1.700618
v -0.951903 0.750097 -1.310182
v 0.587785 8.767773 -0.809017
v 0.000000 8.767773 -1.000000
v 0.951057 8.767773 -0.309017
v 0.951057 8.767773 0.309017
v 0.587785 8.767773 0.809017
v 0.000000 8.767773 1.000000
v -0.587785 8.767773 0.809017
v -0.951057 8.767773 0.309017
v -0.951057 8.767773 -0.309017
v -0.587785 8.767773 -0.809017
v 0.505324 8.250409 -0.695519
v 0.000000 8.250409 -0.859708
v 0.817631 8.250409 -0.265665
v 0.817631 8.250409 0.265665
v 0.505324 8.250409 0.695519
v 0.000000 8.250409 0.859708
v -0.505324 8.250409 0.695519
v -0.817631 8.250409 0.265665
v -0.817631 8.250409 -0.265665
v -0.505324 8.250409 -0.695519
vn -0.0000 0.2774 -0.9608
vn -0.0000 0.7837 0.6211
vn 0.5647 0.2774 -0.7773
vn -0.3651 0.7837 0.5025
vn 0.9137 0.2774 -0.2969
vn -0.5907 0.7837 0.1919
vn 0.9137 0.2774 0.2969
vn -0.5907 0.7837 -0.1919
vn 0.5647 0.2774 0.7773
vn -0.3651 0.7837 -0.5025
vn -0.0000 0.2774 0.9608
vn -0.0000 0.7837 -0.6211
vn -0.5647 0.2774 0.7773
vn 0.3651 0.7837 -0.5025
vn -0.9137 0.2774 0.2969
vn 0.5907 0.7837 -0.1919
vn -0.9137 0.2774 -0.2969
vn 0.5907 0.7837 0.1919
vn -0.5647 0.2774 -0.7773
vn 0.3651 0.7837 0.5025
vn -0.0000 0.5315 -0.8471
vn 0.4979 0.5315 -0.6853
vn 0.8056 0.5315 -0.2618
vn 0.8056 0.5315 0.2618
vn 0.4979 0.5315 0.6853
vn -0.0000 0.5315 0.8471
vn -0.4979 0.5315 0.6853
vn -0.8056 0.5315 0.2618
vn -0.8056 0.5315 -0.2618
vn -0.4979 0.5315 -0.6853
vn -0.0000 0.5695 -0.8220
vn 0.4832 0.5695 -0.6650
vn 0.7818 0.5695 -0.2540
vn 0.7818 0.5695 0.2540
vn 0.4832 0.5695 0.6650
vn -0.0000 0.5695 0.8220
vn -0.4832 0.5695 0.6650
vn -0.7818 0.5695 0.2540
vn -0.7818 0.5695 -0.2540
vn -0.4832 0.5695 -0.6650
vn -0.0000 0.6152 -0.7884
vn 0.4634 0.6152 -0.6378
vn 0.7498 0.6152 -0.2436
vn 0.7498 0.6152 0.2436
vn 0.4634 0.6152 0.6378
vn -0.0000 0.6152 0.7884
vn -0.4634 0.6152 0.6378
vn -0.7498 0.6152 0.2436
vn -0.7498 0.6152 -0.2436
vn -0.4634 0.6152 -0.6378
vn -0.0000 0.5992 -0.8006
vn 0.4706 0.5992 -0.6477
vn 0.7614 0.5992 -0.2474
vn 0.7614 0.5992 0.2474
vn 0.4706 0.5992 0.6477
vn -0.0000 0.5992 0.8006
vn -0.4706 0.5992 0.6477
vn -0.7614 0.5992 0.2474
vn -0.7614 0.5992 -0.2474
vn -0.4706 0.5992 -0.6477
vn -0.0000 0.2815 -0.9596
vn 0.5640 0.2815 -0.7763
vn 0.9126 0.2815 -0.2965
vn 0.9126 0.2815 0.2965
vn 0.5640 0.2815 0.7763
vn -0.0000 0.2815 0.9596
vn -0.5640 0.2815 0.7763
vn -0.9126 0.2815 0.2965
vn -0.9126 0.2815 -0.2965
vn -0.5640 0.2815 -0.7763
vn -0.0000 -0.9022 -0.4314
vn -0.0000 -0.3686 -0.9296
vn 0.5464 -0.3686 -0.7521
vn 0.2535 -0.9022 -0.3490
vn 0.8841 -0.3686 -0.2873
vn 0.4102 -0.9022 -0.1333
vn 0.8841 -0.3686 0.2873
vn 0.4102 -0.9022 0.1333
vn 0.5464 -0.3686 0.7521
vn 0.2535 -0.9022 0.3490
vn -0.0000 -0.3686 0.9296
vn -0.0000 -0.9022 0.4314
vn -0.5464 -0.3686 0.7521
vn -0.2535 -0.9022 0.3490
vn -0.8841 -0.3686 0.2873
vn -0.4102 -0.9022 0.1333
vn -0.8841 -0.3686 -0.2873
vn -0.4102 -0.9022 -0.1333
vn -0.5464 -0.3686 -0.7521
vn -0.2535 -0.9022 -0.3490
vn 0.4498 0.6437 -0.6191
vn -0.0000 0.6437 -0.7653
vn 0.7278 0.6437 -0.2365
vn 0.7278 0.6437 0.2365
vn 0.4498 0.6437 0.6191
vn -0.0000 0.6437 0.7653
vn -0.4498 0.6437 0.6191
vn -0.7278 0.6437 0.2365
vn -0.7278 0.6437 -0.2365
vn -0.4498 0.6437 -0.6191
vt 0.968048 0.885800
vt 0.968048 0.926613
vt 0.953524 0.926613
vt 0.953524 0.885800
vt 0.997097 0.885800
vt 0.997097 0.926613
vt 0.982573 0.926613
vt 0.982573 0.885800
vt 0.953524 0.926613
vt 0.953524 0.885800
vt 0.997097 0.885800
vt 0.982573 0.885800
vt 0.968048 0.926613
vt 0.968048 0.885800
vt 0.953523 0.926613
vt 0.953523 0.885800
vt 0.997097 0.880900
vt 0.997097 0.926612
vt 0.980454 0.926612
vt 0.980454 0.880900
vt 0.949417 0.972176
vt 0.949254 0.970237
vt 0.951512 0.970392
vt 0.951675 0.972331
vt 0.982573 0.926613
vt 0.982573 0.885800
vt 0.468802 0.920522
vt 0.483343 0.922754
vt 0.481821 0.931909
vt 0.464819 0.929299
vt 0.679643 0.931909
vt 0.700659 0.931909
vt 0.702297 0.940833
vt 0.678005 0.940833
vt 0.762419 0.920522
vt 0.780392 0.920522
vt 0.781914 0.929677
vt 0.760897 0.929677
vt 0.600227 0.922754
vt 0.614767 0.920522
vt 0.618751 0.929299
vt 0.601748 0.931909
vt 0.582254 0.922754
vt 0.580732 0.931909
vt 0.567713 0.920522
vt 0.563730 0.929299
vt 0.699137 0.922754
vt 0.713678 0.920522
vt 0.717661 0.929299
vt 0.501316 0.922754
vt 0.515856 0.920522
vt 0.519840 0.929299
vt 0.502837 0.931909
vt 0.681164 0.922754
vt 0.666624 0.920522
vt 0.662640 0.929299
vt 0.480183 0.940833
vt 0.504475 0.940833
vt 0.506043 0.948737
vt 0.478615 0.948737
vt 0.743895 0.927066
vt 0.759259 0.938601
vt 0.739606 0.935584
vt 0.721950 0.937816
vt 0.524128 0.937816
vt 0.783552 0.938601
vt 0.579094 0.940833
vt 0.559441 0.937816
vt 0.658352 0.937816
vt 0.798916 0.927066
vt 0.803205 0.935584
vt 0.603386 0.940833
vt 0.604954 0.948737
vt 0.627143 0.945331
vt 0.632371 0.953743
vt 0.606951 0.957645
vt 0.623039 0.937816
vt 0.726054 0.945331
vt 0.703865 0.948737
vt 0.528232 0.945331
vt 0.785119 0.946505
vt 0.757692 0.946505
vt 0.577526 0.948737
vt 0.555337 0.945331
vt 0.676437 0.948737
vt 0.654248 0.945331
vt 0.460530 0.937816
vt 0.456426 0.945331
vt 0.705862 0.957645
vt 0.731282 0.953743
vt 0.739606 0.969631
vt 0.709041 0.974323
vt 0.533460 0.953743
vt 0.508040 0.957645
vt 0.787116 0.955413
vt 0.755695 0.955413
vt 0.575529 0.957645
vt 0.550109 0.953743
vt 0.674440 0.957645
vt 0.649020 0.953743
vt 0.476619 0.957645
vt 0.451198 0.953743
vt 0.998051 0.351547
vt 0.905888 0.351547
vt 0.905888 0.009304
vt 0.998051 0.009304
vt 0.541785 0.969631
vt 0.511220 0.974323
vt 0.790296 0.972091
vt 0.752515 0.972091
vt 0.572350 0.974323
vt 0.671261 0.974323
vt 0.640696 0.969631
vt 0.473439 0.974323
vt 0.442874 0.969631
vt 0.610130 0.974323
vt 0.188628 0.351785
vt 0.096465 0.351785
vt 0.096465 0.007720
vt 0.188628 0.007720
vt 0.290633 0.351785
vt 0.290633 0.007720
vt 0.612513 0.350896
vt 0.507663 0.350896
vt 0.507663 0.009156
vt 0.612513 0.009156
vt 0.813725 0.351547
vt 0.813725 0.009304
vt 0.402813 0.350896
vt 0.402813 0.009156
vt 0.721563 0.351547
vt 0.721563 0.009304
vt 0.004303 0.351785
vt 0.004303 0.007720
vt 0.402483 0.351523
vt 0.290866 0.351523
vt 0.290866 0.008271
vt 0.402483 0.008271
vt 0.717363 0.350896
vt 0.717363 0.009156
vt 0.917377 0.985308
vt 0.913860 0.980469
vt 0.915974 0.979782
vt 0.918683 0.983511
vt 0.913860 0.974487
vt 0.915974 0.975173
vt 0.917377 0.969647
vt 0.918683 0.971445
vt 0.923066 0.967799
vt 0.923066 0.970021
vt 0.928755 0.969647
vt 0.927449 0.971445
vt 0.932271 0.974487
vt 0.930158 0.975173
vt 0.932271 0.980469
vt 0.930158 0.979782
vt 0.928755 0.985308
vt 0.927449 0.983511
vt 0.923066 0.987157
vt 0.923066 0.984935
vt 0.957162 0.966966
vt 0.960128 0.971048
vt 0.960128 0.976095
vt 0.957162 0.980177
vt 0.952363 0.981737
vt 0.947563 0.980177
vt 0.944597 0.976095
vt 0.944597 0.971048
vt 0.947563 0.966966
vt 0.952363 0.965406
vt 0.932563 0.976187
vt 0.934825 0.975453
vt 0.935194 0.975961
vt 0.932563 0.976815
vt 0.936222 0.973529
vt 0.936820 0.973723
vt 0.936222 0.971151
vt 0.936820 0.970957
vt 0.934825 0.969227
vt 0.935194 0.968719
vt 0.932563 0.968493
vt 0.932563 0.967865
vt 0.930302 0.969227
vt 0.929933 0.968719
vt 0.928904 0.971151
vt 0.928307 0.970957
vt 0.928904 0.973529
vt 0.928307 0.973723
vt 0.930302 0.975453
vt 0.929933 0.975961
vt 0.939044 0.967177
vt 0.919921 0.960963
vt 0.908102 0.944696
vt 0.908102 0.924588
vt 0.919921 0.908321
vt 0.939044 0.902107
vt 0.958168 0.908321
vt 0.969987 0.924588
vt 0.969987 0.944696
vt 0.958168 0.960963
vt 0.949254 0.974709
vt 0.949254 0.972331
vt 0.951517 0.972331
vt 0.951517 0.974709
vt 0.946696 0.969788
vt 0.946991 0.967865
vt 0.949254 0.967865
vt 0.948959 0.969788
vt 0.944138 0.969788
vt 0.944433 0.967865
vt 0.946696 0.967865
vt 0.946401 0.969788
vt 0.953441 0.972627
vt 0.953441 0.974890
vt 0.951517 0.974594
vt 0.946696 0.972166
vt 0.948959 0.972166
vt 0.944138 0.972166
vt 0.946401 0.972166
vt 0.949417 0.967865
vt 0.951675 0.968020
vt 0.946991 0.974090
vt 0.949254 0.974090
vt 0.944433 0.974090
vt 0.946696 0.974090
s 1
usemtl Material.001
f 1/1/1 92/2/92 91/3/91 3/4/3
f 3/5/3 91/6/91 93/7/93 5/8/5
f 5/8/5 93/7/93 94/2/94 7/1/7
f 7/1/7 94/2/94 95/9/95 9/10/9
f 9/11/9 95/6/95 96/7/96 11/12/11
f 11/12/11 96/7/96 97/13/97 13/14/13
f 13/14/13 97/13/97 98/15/98 15/16/15
f 15/17/15 98/18/98 99/19/99 17/20/17
f 14/21/14 12/22/12 106/23/92 107/24/91
f 17/5/17 99/6/99 100/25/100 19/26/19
f 19/26/19 100/25/100 92/2/92 1/1/1
f 17/27/17 19/28/19 30/29/30 29/30/29
f 23/31/23 24/32/24 34/33/34 33/34/33
f 15/35/15 17/36/17 29/37/29 28/38/28
f 13/39/13 15/40/15 28/41/28 27/42/27
f 11/43/11 13/39/13 27/42/27 26/44/26
f 9/45/9 11/43/11 26/44/26 25/46/25
f 7/47/7 9/48/9 25/49/25 24/32/24
f 1/50/1 3/51/3 22/52/22 21/53/21
f 5/54/5 7/47/7 24/32/24 23/31/23
f 3/55/3 5/54/5 23/31/23 22/56/22
f 19/28/19 1/50/1 21/53/21 30/29/30
f 40/57/40 31/58/31 41/59/41 50/60/50
f 30/29/30 21/53/21 31/58/31 40/57/40
f 27/61/27 28/38/28 38/62/38 37/63/37
f 24/32/24 25/49/25 35/64/35 34/33/34
f 21/53/21 22/52/22 32/65/32 31/58/31
f 28/38/28 29/37/29 39/66/39 38/62/38
f 25/46/25 26/44/26 36/67/36 35/68/35
f 22/56/22 23/31/23 33/34/33 32/69/32
f 29/37/29 30/70/30 40/71/40 39/66/39
f 26/44/26 27/42/27 37/72/37 36/67/36
f 47/73/47 48/74/48 58/75/58 57/76/57
f 37/72/37 38/77/38 48/74/48 47/73/47
f 34/33/34 35/64/35 45/78/45 44/79/44
f 31/58/31 32/65/32 42/80/42 41/59/41
f 38/62/38 39/66/39 49/81/49 48/82/48
f 35/68/35 36/67/36 46/83/46 45/84/45
f 32/69/32 33/34/33 43/85/43 42/86/42
f 39/87/39 40/57/40 50/60/50 49/88/49
f 36/67/36 37/72/37 47/73/47 46/83/46
f 33/34/33 34/33/34 44/79/44 43/85/43
f 54/89/54 55/90/55 65/91/65 64/92/64
f 44/79/44 45/78/45 55/90/55 54/89/54
f 41/59/41 42/80/42 52/93/52 51/94/51
f 48/82/48 49/81/49 59/95/59 58/96/58
f 45/84/45 46/83/46 56/97/56 55/98/55
f 42/86/42 43/85/43 53/99/53 52/100/52
f 49/88/49 50/60/50 60/101/60 59/102/59
f 46/83/46 47/73/47 57/76/57 56/97/56
f 43/85/43 44/79/44 54/89/54 53/99/53
f 50/60/50 41/59/41 51/94/51 60/101/60
f 62/103/62 63/104/63 75/105/75 73/106/73
f 51/94/51 52/93/52 62/107/62 61/108/61
f 58/96/58 59/95/59 69/109/69 68/110/68
f 55/98/55 56/97/56 66/111/66 65/107/65
f 52/100/52 53/99/53 63/112/63 62/113/62
f 59/102/59 60/101/60 70/114/70 69/115/69
f 56/97/56 57/76/57 67/116/67 66/111/66
f 53/99/53 54/89/54 64/92/64 63/112/63
f 60/101/60 51/94/51 61/108/61 70/114/70
f 57/76/57 58/75/58 68/113/68 67/116/67
f 70/117/70 61/118/61 72/119/72 89/120/89
f 69/121/69 70/117/70 89/120/89 87/122/87
f 66/123/66 67/124/67 83/125/83 81/126/81
f 63/104/63 64/127/64 77/128/77 75/105/75
f 67/124/67 68/129/68 85/130/85 83/125/83
f 64/127/64 65/131/65 79/132/79 77/128/77
f 61/118/61 62/133/62 73/134/73 72/119/72
f 68/135/68 69/136/69 87/137/87 85/138/85
f 65/139/65 66/123/66 81/126/81 79/140/79
f 72/141/72 73/142/73 74/143/74 71/144/71
f 73/142/73 75/145/75 76/146/76 74/143/74
f 75/145/75 77/147/77 78/148/78 76/146/76
f 77/147/77 79/149/79 80/150/80 78/148/78
f 79/149/79 81/151/81 82/152/82 80/150/80
f 81/151/81 83/153/83 84/154/84 82/152/82
f 83/153/83 85/155/85 86/156/86 84/154/84
f 85/155/85 87/157/87 88/158/88 86/156/86
f 87/157/87 89/159/89 90/160/90 88/158/88
f 89/159/89 72/141/72 71/144/71 90/160/90
f 71/161/71 74/162/74 76/163/76 78/164/78 80/165/80 82/166/82 84/167/84 86/168/86 88/169/88 90/170/90
f 2/171/2 4/172/4 91/173/91 92/174/92
f 4/172/4 6/175/6 93/176/93 91/173/91
f 6/175/6 8/177/8 94/178/94 93/176/93
f 8/177/8 10/179/10 95/180/95 94/178/94
f 10/179/10 12/181/12 96/182/96 95/180/95
f 12/181/12 14/183/14 97/184/97 96/182/96
f 14/183/14 16/185/16 98/186/98 97/184/97
f 16/185/16 18/187/18 99/188/99 98/186/98
f 18/187/18 20/189/20 100/190/100 99/188/99
f 20/189/20 2/171/2 92/174/92 100/190/100
f 101/191/97 102/192/96 110/193/95 109/194/94 108/195/93 107/196/91 106/197/92 105/198/100 104/199/99 103/200/98
f 8/201/8 6/202/6 103/203/98 104/204/99
f 2/205/2 20/206/20 110/207/95 102/208/96
f 16/209/16 14/210/14 107/211/91 108/212/93
f 10/203/10 8/213/8 104/214/99 105/215/100
f 4/216/4 2/205/2 102/208/96 101/217/97
f 18/218/18 16/209/16 108/212/93 109/219/94
f 12/22/12 10/220/10 105/221/100 106/23/92
f 6/222/6 4/216/4 101/217/97 103/223/98
f 20/224/20 18/218/18 109/219/94 110/225/95
