# Blender 4.3.0
# www.blender.org
mtllib Fire Stick .mtl
o Cylinder
v -0.000000 0.332887 -0.041177
v -0.000000 1.234501 -0.041177
v 0.029117 0.332887 -0.029117
v 0.029117 1.234501 -0.029117
v 0.041177 0.332887 0.000000
v 0.041177 1.234501 0.000000
v 0.029117 0.332887 0.029117
v 0.029117 1.234501 0.029117
v -0.000000 0.332887 0.041177
v -0.000000 1.234501 0.041177
v -0.029117 0.332887 0.029117
v -0.029117 1.234501 0.029117
v -0.041177 0.332887 0.000000
v -0.041177 1.234501 0.000000
v -0.029117 0.332887 -0.029117
v -0.029117 1.234501 -0.029117
v -0.000000 0.360410 -0.041177
v 0.029117 0.360410 -0.029117
v 0.041177 0.360410 0.000000
v 0.029117 0.360410 0.029117
v -0.000000 0.360410 0.041177
v -0.029117 0.360410 0.029117
v -0.041177 0.360410 0.000000
v -0.029117 0.360410 -0.029117
v -0.000000 0.332887 -0.071304
v -0.010775 0.338226 -0.074091
v 0.010775 0.338226 -0.074091
v -0.007516 0.334469 -0.073334
v -0.000000 0.335143 -0.075086
v -0.000000 0.338226 -0.075940
v 0.007516 0.334469 -0.073334
v 0.044771 0.338226 -0.060009
v 0.060010 0.338226 -0.044771
v 0.050419 0.332887 -0.050419
v 0.053698 0.338226 -0.053698
v 0.053094 0.335143 -0.053094
v 0.057170 0.334469 -0.046540
v 0.046540 0.334469 -0.057170
v 0.044771 0.355071 -0.060010
v 0.050419 0.360410 -0.050419
v 0.060010 0.355071 -0.044771
v 0.046540 0.358827 -0.057170
v 0.053094 0.358153 -0.053094
v 0.057170 0.358827 -0.046540
v 0.053698 0.355071 -0.053698
v 0.074091 0.338226 -0.010775
v 0.074091 0.338226 0.010775
v 0.071304 0.332887 0.000000
v 0.075940 0.338226 -0.000000
v 0.075086 0.335143 0.000000
v 0.073334 0.334469 0.007516
v 0.073334 0.334469 -0.007516
v 0.074091 0.355071 -0.010775
v 0.071304 0.360410 0.000000
v 0.074091 0.355071 0.010775
v 0.073334 0.358827 -0.007516
v 0.075086 0.358153 0.000000
v 0.073334 0.358827 0.007516
v 0.075940 0.355071 0.000000
v 0.060010 0.338226 0.044771
v 0.044771 0.338226 0.060010
v 0.050419 0.332887 0.050419
v 0.053698 0.338226 0.053698
v 0.053094 0.335143 0.053094
v 0.046540 0.334469 0.057170
v 0.057170 0.334469 0.046540
v 0.060010 0.355071 0.044771
v 0.050419 0.360410 0.050419
v 0.044771 0.355071 0.060010
v 0.057170 0.358827 0.046540
v 0.053094 0.358153 0.053094
v 0.046540 0.358827 0.057170
v 0.053698 0.355071 0.053698
v 0.010775 0.338226 0.074091
v -0.010775 0.338226 0.074091
v -0.000000 0.332887 0.071304
v -0.000000 0.338226 0.075940
v -0.000000 0.335143 0.075086
v -0.007516 0.334469 0.073334
v 0.007516 0.334469 0.073334
v 0.010775 0.355071 0.074091
v -0.000000 0.360410 0.071304
v -0.010775 0.355071 0.074091
v 0.007516 0.358827 0.073334
v -0.000000 0.358153 0.075086
v -0.007516 0.358827 0.073334
v -0.000000 0.355071 0.075940
v -0.044771 0.338226 0.060010
v -0.060010 0.338226 0.044771
v -0.050419 0.332887 0.050419
v -0.053698 0.338226 0.053698
v -0.053094 0.335143 0.053094
v -0.057170 0.334469 0.046540
v -0.046540 0.334469 0.057170
v -0.044771 0.355071 0.060010
v -0.050419 0.360410 0.050419
v -0.060010 0.355071 0.044771
v -0.046540 0.358827 0.057170
v -0.053094 0.358153 0.053094
v -0.057170 0.358827 0.046540
v -0.053698 0.355071 0.053698
v -0.074091 0.338226 0.010775
v -0.074091 0.338226 -0.010775
v -0.071304 0.332887 0.000000
v -0.075940 0.338226 -0.000000
v -0.075086 0.335143 -0.000000
v -0.073334 0.334469 -0.007516
v -0.073334 0.334469 0.007516
v -0.074091 0.355071 0.010775
v -0.071304 0.360410 0.000000
v -0.074091 0.355071 -0.010775
v -0.073334 0.358827 0.007516
v -0.075086 0.358153 -0.000000
v -0.073334 0.358827 -0.007516
v -0.075940 0.355071 -0.000000
v -0.060010 0.338226 -0.044771
v -0.044771 0.338226 -0.060010
v -0.050419 0.332887 -0.050419
v -0.053698 0.338226 -0.053698
v -0.053094 0.335143 -0.053094
v -0.046540 0.334469 -0.057170
v -0.057170 0.334469 -0.046540
v -0.060010 0.355071 -0.044771
v -0.050419 0.360410 -0.050419
v -0.044771 0.355071 -0.060010
v -0.057170 0.358827 -0.046540
v -0.053094 0.358153 -0.053094
v -0.046540 0.358827 -0.057170
v -0.053698 0.355071 -0.053698
v 0.010775 0.355071 -0.074091
v -0.010775 0.355071 -0.074091
v -0.000000 0.360410 -0.071304
v -0.000000 0.355071 -0.075940
v -0.000000 0.358153 -0.075086
v -0.007516 0.358827 -0.073334
v 0.007516 0.358827 -0.073334
v -0.000000 0.360410 -0.029807
v 0.021077 0.360410 -0.021077
v 0.029807 0.360410 0.000000
v 0.021077 0.360410 0.021077
v -0.000000 0.360410 0.029807
v -0.021077 0.360410 0.021077
v -0.029807 0.360410 0.000000
v -0.021077 0.360410 -0.021077
v -0.000000 0.659500 -0.035492
v 0.025097 0.659500 -0.025097
v 0.035492 0.659500 0.000000
v 0.025097 0.659500 0.025097
v -0.000000 0.659500 0.035492
v -0.025097 0.659500 0.025097
v -0.035492 0.659500 0.000000
v -0.025097 0.659500 -0.025097
v 0.031384 0.656761 -0.031384
v 0.027364 0.357670 -0.027364
v 0.044383 0.656761 0.000000
v 0.038698 0.357670 0.000000
v 0.031384 0.656761 0.031384
v 0.027364 0.357670 0.027364
v -0.000000 0.656761 0.044383
v -0.000000 0.357670 0.038698
v -0.031384 0.656761 0.031384
v -0.027364 0.357670 0.027364
v -0.044383 0.656761 0.000000
v -0.038698 0.357670 0.000000
v -0.031384 0.656761 -0.031384
v -0.027364 0.357670 -0.027364
v -0.000000 0.357670 -0.038698
v -0.000000 0.656761 -0.044383
v -0.000000 1.111295 -0.039959
v 0.028255 1.111295 -0.028255
v 0.039959 1.111295 0.000000
v 0.028255 1.111295 0.028255
v -0.000000 1.111295 0.039959
v -0.028255 1.111295 0.028255
v -0.039959 1.111295 0.000000
v -0.028255 1.111295 -0.028255
v 0.049021 1.229990 -0.049021
v -0.000000 1.229990 -0.069326
v -0.000000 1.106784 -0.068107
v 0.069326 1.229990 0.000000
v 0.049021 1.229990 0.049021
v -0.000000 1.229990 0.069326
v -0.049021 1.229990 0.049021
v -0.069326 1.229990 0.000000
v -0.049021 1.229990 -0.049021
v 0.048159 1.106784 -0.048159
v 0.068107 1.106784 0.000000
v 0.048159 1.106784 0.048159
v -0.000000 1.106784 0.068107
v -0.048159 1.106784 0.048159
v -0.068107 1.106784 0.000000
v -0.048159 1.106784 -0.048159
vn 0.0654 0.9853 -0.1579
vn 0.0654 0.9853 0.1579
vn -0.1579 -0.9853 -0.0654
vn -0.0654 -0.9853 -0.1579
vn -0.1579 0.9853 -0.0654
vn 0.0654 -0.9853 -0.1579
vn -0.0000 1.0000 -0.0000
vn 0.1579 0.9853 0.0654
vn 0.1579 -0.9853 -0.0654
vn -0.0000 -1.0000 -0.0000
vn -0.9239 -0.0000 0.3827
vn -0.9239 -0.0000 -0.3827
vn 0.9239 -0.0000 -0.3827
vn 0.3827 -0.0000 0.9239
vn 0.3827 -0.0000 -0.9239
vn -0.3827 -0.0000 0.9239
vn 0.9239 -0.0000 0.3827
vn -0.3827 -0.0000 -0.9239
vn -0.0000 -0.8588 -0.5124
vn -0.1733 -0.3033 -0.9370
vn 0.1733 -0.3033 -0.9370
vn 0.5401 -0.3033 -0.7851
vn 0.7851 -0.3033 -0.5401
vn 0.3623 -0.8588 -0.3623
vn 0.5401 0.3033 -0.7851
vn 0.3623 0.8588 -0.3623
vn 0.7851 0.3033 -0.5401
vn 0.9370 -0.3033 -0.1733
vn 0.9370 -0.3033 0.1733
vn 0.5124 -0.8588 -0.0000
vn 0.9370 0.3033 -0.1733
vn 0.5124 0.8588 -0.0000
vn 0.9370 0.3033 0.1733
vn 0.7851 -0.3033 0.5401
vn 0.5401 -0.3033 0.7851
vn 0.3623 -0.8588 0.3623
vn 0.7851 0.3033 0.5401
vn 0.3623 0.8588 0.3623
vn 0.5401 0.3033 0.7851
vn 0.1733 -0.3033 0.9370
vn -0.1733 -0.3033 0.9370
vn -0.0000 -0.8588 0.5124
vn 0.1733 0.3033 0.9370
vn -0.0000 0.8588 0.5124
vn -0.1733 0.3033 0.9370
vn -0.5401 -0.3033 0.7851
vn -0.7851 -0.3033 0.5401
vn -0.3623 -0.8588 0.3623
vn -0.5401 0.3033 0.7851
vn -0.3623 0.8588 0.3623
vn -0.7851 0.3033 0.5401
vn -0.9370 -0.3033 0.1733
vn -0.9370 -0.3033 -0.1733
vn -0.5124 -0.8588 -0.0000
vn -0.9370 0.3033 0.1733
vn -0.5124 0.8588 -0.0000
vn -0.9370 0.3033 -0.1733
vn -0.7851 -0.3033 -0.5401
vn -0.5401 -0.3033 -0.7851
vn -0.3623 -0.8588 -0.3623
vn -0.7851 0.3033 -0.5401
vn -0.3623 0.8588 -0.3623
vn -0.5401 0.3033 -0.7851
vn 0.1733 0.3033 -0.9370
vn -0.1733 0.3033 -0.9370
vn -0.0000 0.8588 -0.5124
vn 0.3398 -0.4600 -0.8203
vn 0.1209 -0.9488 -0.2919
vn 0.8165 -0.0000 -0.5773
vn 0.5773 -0.0000 -0.8165
vn 0.8203 -0.4600 -0.3398
vn 0.2919 -0.9488 -0.1209
vn 0.9856 -0.0000 0.1691
vn 0.9856 -0.0000 -0.1691
vn 0.8203 -0.4600 0.3398
vn 0.2919 -0.9488 0.1209
vn 0.5773 -0.0000 0.8165
vn 0.8165 -0.0000 0.5773
vn 0.3398 -0.4600 0.8203
vn 0.1209 -0.9488 0.2919
vn -0.1691 -0.0000 0.9856
vn 0.1691 -0.0000 0.9856
vn -0.3398 -0.4600 0.8203
vn -0.1209 -0.9488 0.2919
vn -0.8165 -0.0000 0.5773
vn -0.5774 -0.0000 0.8165
vn -0.8203 -0.4600 0.3398
vn -0.2919 -0.9488 0.1209
vn -0.9856 -0.0000 -0.1691
vn -0.9856 -0.0000 0.1691
vn -0.8203 -0.4600 -0.3398
vn -0.2919 -0.9488 -0.1209
vn -0.5774 -0.0000 -0.8165
vn -0.8165 -0.0000 -0.5774
vn -0.3398 -0.4600 -0.8203
vn -0.1209 -0.9488 -0.2919
vn -0.1691 -0.0000 -0.9856
vn 0.1691 -0.0000 -0.9856
vn -0.1209 0.9488 -0.2919
vn -0.3398 0.4600 -0.8203
vn -0.2919 0.9488 -0.1209
vn -0.8203 0.4600 -0.3398
vn -0.2919 0.9488 0.1209
vn -0.8203 0.4600 0.3398
vn -0.1209 0.9488 0.2919
vn -0.3398 0.4600 0.8203
vn 0.1209 0.9488 0.2919
vn 0.3398 0.4600 0.8203
vn 0.2919 0.9488 0.1209
vn 0.8203 0.4600 0.3398
vn 0.2919 0.9488 -0.1209
vn 0.8203 0.4600 -0.3398
vn 0.1209 0.9488 -0.2919
vn 0.3398 0.4600 -0.8203
vn 0.1211 -0.9486 -0.2923
vn -0.2923 0.9486 -0.1211
vn 0.2923 -0.9486 -0.1211
vn -0.1211 0.9486 -0.2923
vn 0.2923 -0.9486 0.1211
vn 0.1211 0.9486 -0.2923
vn 0.1211 -0.9486 0.2923
vn 0.2923 0.9486 -0.1211
vn -0.3826 -0.0176 -0.9237
vn -0.9237 -0.0176 -0.3826
vn -0.9237 -0.0176 0.3826
vn -0.3826 -0.0176 0.9237
vn 0.3826 -0.0176 0.9237
vn 0.9237 -0.0176 0.3826
vn 0.9237 -0.0176 -0.3826
vn 0.3826 -0.0176 -0.9237
vn -0.2923 0.9486 0.1211
vn -0.1211 -0.9486 -0.2923
vn -0.1211 0.9486 0.2923
vn -0.2923 -0.9486 -0.1211
vn 0.1211 0.9486 0.2923
vn -0.2923 -0.9486 0.1211
vn 0.2923 0.9486 0.1211
vn -0.1211 -0.9486 0.2923
vn -0.3827 -0.0091 -0.9238
vn -0.9238 -0.0091 -0.3827
vn -0.9238 -0.0091 0.3827
vn -0.3827 -0.0091 0.9238
vn 0.3827 -0.0091 0.9238
vn 0.9238 -0.0091 0.3827
vn 0.9238 -0.0091 -0.3827
vn 0.3827 -0.0091 -0.9238
vn -0.0654 0.9853 -0.1579
vn -0.1579 -0.9853 0.0654
vn -0.0654 -0.9853 0.1579
vn -0.0654 0.9853 0.1579
vn 0.0654 -0.9853 0.1579
vn 0.1579 0.9853 -0.0654
vn 0.1579 -0.9853 0.0654
vn -0.1579 0.9853 0.0654
vt 0.054871 0.899467
vt 0.060720 0.905316
vt 0.057893 0.912142
vt 0.048046 0.902295
vt 0.074841 0.899467
vt 0.074841 0.891196
vt 0.081666 0.888369
vt 0.081666 0.902295
vt 0.060547 0.918967
vt 0.054871 0.924643
vt 0.048046 0.921816
vt 0.057720 0.912142
vt 0.068574 0.918967
vt 0.071401 0.912142
vt 0.060720 0.885347
vt 0.054871 0.891196
vt 0.048046 0.888369
vt 0.057893 0.878522
vt 0.074250 0.924643
vt 0.081075 0.921816
vt 0.068992 0.885347
vt 0.068992 0.905316
vt 0.071819 0.912142
vt 0.074250 0.932670
vt 0.081075 0.935497
vt 0.051098 0.042572
vt 0.047636 0.046034
vt 0.042740 0.046034
vt 0.039278 0.042572
vt 0.039278 0.037676
vt 0.042740 0.034214
vt 0.047636 0.034214
vt 0.051098 0.037676
vt 0.093124 0.044449
vt 0.093774 0.044448
vt 0.093855 0.048490
vt 0.093205 0.048491
vt 0.093233 0.051584
vt 0.093883 0.051583
vt 0.093891 0.057300
vt 0.093241 0.057301
vt 0.042740 0.068582
vt 0.047636 0.068582
vt 0.049427 0.072906
vt 0.040949 0.072906
vt 0.092996 0.058206
vt 0.092347 0.058206
vt 0.092347 0.052489
vt 0.092996 0.052489
vt 0.051098 0.065120
vt 0.055422 0.066911
vt 0.074097 0.069628
vt 0.074747 0.069628
vt 0.074820 0.074776
vt 0.074171 0.074777
vt 0.040949 0.050357
vt 0.034954 0.044363
vt 0.093097 0.065341
vt 0.092447 0.065341
vt 0.092371 0.061299
vt 0.093021 0.061299
vt 0.049427 0.029890
vt 0.055422 0.035885
vt 0.040949 0.029890
vt 0.039278 0.060224
vt 0.039278 0.065120
vt 0.034954 0.066911
vt 0.034954 0.058433
vt 0.042740 0.056762
vt 0.040949 0.052439
vt 0.047636 0.056762
vt 0.049427 0.052439
vt 0.051098 0.060224
vt 0.055422 0.058433
vt 0.055422 0.044363
vt 0.074178 0.078119
vt 0.074828 0.078119
vt 0.074778 0.083516
vt 0.074128 0.083516
vt 0.034954 0.035885
vt 0.093021 0.049396
vt 0.092371 0.049396
vt 0.092447 0.045354
vt 0.093097 0.045354
vt 0.049427 0.050357
vt 0.093221 0.060394
vt 0.093871 0.060393
vt 0.093800 0.064435
vt 0.093150 0.064436
vt 0.056160 0.043405
vt 0.055964 0.044587
vt 0.055266 0.045562
vt 0.056462 0.042982
vt 0.056087 0.044638
vt 0.055181 0.046075
vt 0.051139 0.050117
vt 0.049702 0.051023
vt 0.049652 0.050900
vt 0.050626 0.050202
vt 0.048046 0.051398
vt 0.048469 0.051096
vt 0.056462 0.059814
vt 0.056160 0.059391
vt 0.055964 0.058209
vt 0.056087 0.058158
vt 0.055266 0.057234
vt 0.055181 0.056721
vt 0.042330 0.051398
vt 0.040673 0.051023
vt 0.040724 0.050900
vt 0.041907 0.051096
vt 0.039237 0.050117
vt 0.039749 0.050202
vt 0.051139 0.052679
vt 0.050626 0.052594
vt 0.049652 0.051896
vt 0.049702 0.051773
vt 0.048469 0.051700
vt 0.048046 0.051398
vt 0.035195 0.046075
vt 0.034289 0.044638
vt 0.034411 0.044587
vt 0.035110 0.045562
vt 0.033914 0.042982
vt 0.034216 0.043405
vt 0.041907 0.051700
vt 0.040724 0.051896
vt 0.040673 0.051773
vt 0.039749 0.052594
vt 0.039237 0.052679
vt 0.033914 0.037265
vt 0.034289 0.035609
vt 0.034411 0.035660
vt 0.034216 0.036843
vt 0.035195 0.034173
vt 0.035110 0.034685
vt 0.035195 0.056721
vt 0.035110 0.057234
vt 0.034411 0.058209
vt 0.034289 0.058158
vt 0.034216 0.059391
vt 0.033914 0.059814
vt 0.039237 0.030130
vt 0.040673 0.029225
vt 0.040724 0.029347
vt 0.039749 0.030045
vt 0.042330 0.028849
vt 0.041907 0.029152
vt 0.033914 0.065531
vt 0.034216 0.065953
vt 0.034411 0.067136
vt 0.034289 0.067187
vt 0.035110 0.068111
vt 0.035195 0.068623
vt 0.048046 0.028849
vt 0.049702 0.029225
vt 0.049652 0.029347
vt 0.048469 0.029152
vt 0.051139 0.030130
vt 0.050626 0.030045
vt 0.039237 0.072666
vt 0.039749 0.072751
vt 0.040724 0.073449
vt 0.040673 0.073571
vt 0.041907 0.073644
vt 0.042330 0.073947
vt 0.055181 0.034173
vt 0.056087 0.035609
vt 0.055964 0.035660
vt 0.055266 0.034685
vt 0.056462 0.037265
vt 0.056160 0.036843
vt 0.048046 0.073947
vt 0.048469 0.073644
vt 0.049652 0.073449
vt 0.049702 0.073571
vt 0.050626 0.072751
vt 0.051139 0.072666
vt 0.056462 0.065531
vt 0.056087 0.067187
vt 0.055964 0.067136
vt 0.056160 0.065953
vt 0.055181 0.068623
vt 0.055266 0.068111
vt 0.093003 0.059862
vt 0.092354 0.059862
vt 0.093003 0.050833
vt 0.092354 0.050833
vt 0.074067 0.068299
vt 0.074716 0.068299
vt 0.092474 0.044448
vt 0.093124 0.044448
vt 0.074182 0.076432
vt 0.074832 0.076431
vt 0.074716 0.086013
vt 0.074067 0.086014
vt 0.074103 0.084956
vt 0.074753 0.084956
vt 0.093224 0.049928
vt 0.093874 0.049927
vt 0.093236 0.058957
vt 0.093886 0.058956
vt 0.093774 0.065341
vt 0.093124 0.065342
vt 0.093124 0.066247
vt 0.092474 0.066247
vt 0.352272 0.945915
vt 0.377767 0.935354
vt 0.416917 0.974505
vt 0.406357 1.000000
vt 0.352272 0.869427
vt 0.377767 0.879988
vt 0.406357 0.815342
vt 0.416917 0.840838
vt 0.482844 0.815342
vt 0.472284 0.840838
vt 0.536929 0.869427
vt 0.511434 0.879988
vt 0.536929 0.945915
vt 0.511434 0.935354
vt 0.482844 1.000000
vt 0.472284 0.974505
vt 0.939694 0.826048
vt 0.888542 0.804860
vt 0.888542 0.783282
vt 0.954953 0.810790
vt 0.372208 0.748789
vt 0.418825 0.795407
vt 0.410567 0.815342
vt 0.352272 0.757047
vt 0.960882 0.877200
vt 0.982461 0.877200
vt 0.484752 0.795407
vt 0.493010 0.815342
vt 0.939694 0.928352
vt 0.954953 0.943610
vt 0.531370 0.748789
vt 0.551306 0.757047
vt 0.888542 0.949540
vt 0.888542 0.971118
vt 0.531370 0.682862
vt 0.551306 0.674604
vt 0.741262 0.046423
vt 0.709875 0.045505
vt 0.710066 0.035368
vt 0.741428 0.037585
vt 0.741262 0.058922
vt 0.709875 0.059841
vt 0.741428 0.067761
vt 0.710066 0.069977
vt 0.754426 0.066774
vt 0.754341 0.035368
vt 0.767874 0.035524
vt 0.766226 0.066909
vt 0.743168 0.066909
vt 0.741428 0.035524
vt 0.769639 0.057077
vt 0.801025 0.057995
vt 0.800834 0.068132
vt 0.769472 0.065915
vt 0.769639 0.044578
vt 0.801025 0.043659
vt 0.769472 0.035739
vt 0.800834 0.033523
vt 0.372208 0.682862
vt 0.352272 0.674604
vt 0.837390 0.826048
vt 0.822132 0.810790
vt 0.418825 0.636244
vt 0.410567 0.616309
vt 0.816202 0.877200
vt 0.794624 0.877200
vt 0.484752 0.636244
vt 0.493010 0.616309
vt 0.837390 0.928352
vt 0.822132 0.943610
vt 0.057442 0.497586
vt 0.057916 0.466432
vt 0.063917 0.466545
vt 0.062772 0.497686
vt 0.049904 0.497586
vt 0.049430 0.466432
vt 0.044574 0.497686
vt 0.043429 0.466545
vt 0.051093 0.528847
vt 0.051073 0.497686
vt 0.059085 0.497778
vt 0.058209 0.528928
vt 0.044304 0.528928
vt 0.043429 0.497778
vt 0.058066 0.462041
vt 0.058541 0.430888
vt 0.064542 0.431001
vt 0.063396 0.462142
vt 0.050529 0.462041
vt 0.050054 0.430888
vt 0.045199 0.462142
vt 0.044054 0.431001
vt 0.108672 0.941408
vt 0.100639 0.941704
vt 0.100454 0.931857
vt 0.108489 0.931734
vt 0.100454 0.917931
vt 0.108489 0.918053
vt 0.100639 0.908084
vt 0.108672 0.908379
vt 0.109230 0.903986
vt 0.101195 0.904212
vt 0.101044 0.891669
vt 0.109082 0.891663
vt 0.101195 0.878522
vt 0.109230 0.878748
vt 0.077788 0.978495
vt 0.069756 0.978790
vt 0.069570 0.968943
vt 0.077606 0.968821
vt 0.069570 0.955018
vt 0.077606 0.955140
vt 0.069756 0.945171
vt 0.077788 0.945466
vt 0.054871 0.932670
vt 0.048046 0.935497
vt 0.060547 0.938345
vt 0.057720 0.945171
vt 0.071819 0.878522
vt 0.068574 0.938345
vt 0.071401 0.945171
s 0
usemtl Material.001
f 2/1/1 4/2/1 177/3/1 178/4/1
f 8/5/2 10/6/2 182/7/2 181/8/2
f 172/9/3 171/10/3 187/11/3 188/12/3
f 173/13/4 172/9/4 188/12/4 189/14/4
f 14/15/5 16/16/5 185/17/5 184/18/5
f 174/19/6 173/13/6 189/14/6 190/20/6
f 4/2/7 2/1/7 16/16/7 14/15/7 12/21/7 10/6/7 8/5/7 6/22/7
f 6/22/8 8/5/8 181/8/8 180/23/8
f 175/24/9 174/19/9 190/20/9 191/25/9
f 1/26/10 3/27/10 5/28/10 7/29/10 9/30/10 11/31/10 13/32/10 15/33/10
f 89/34/11 97/35/11 109/36/11 102/37/11
f 103/38/12 111/39/12 123/40/12 116/41/12
f 23/42/7 24/43/7 124/44/7 110/45/7
f 33/46/13 41/47/13 53/48/13 46/49/13
f 24/43/7 17/50/7 132/51/7 124/44/7
f 61/52/14 69/53/14 81/54/14 74/55/14
f 7/29/10 5/28/10 48/56/10 62/57/10
f 27/58/15 130/59/15 39/60/15 32/61/15
f 15/33/10 13/32/10 104/62/10 118/63/10
f 13/32/10 11/31/10 90/64/10 104/62/10
f 21/65/7 22/66/7 96/67/7 82/68/7
f 20/69/7 21/65/7 82/68/7 68/70/7
f 19/71/7 20/69/7 68/70/7 54/72/7
f 18/73/7 19/71/7 54/72/7 40/74/7
f 1/26/10 15/33/10 118/63/10 25/75/10
f 75/76/16 83/77/16 95/78/16 88/79/16
f 11/31/10 9/30/10 76/80/10 90/64/10
f 47/81/17 55/82/17 67/83/17 60/84/17
f 5/28/10 3/27/10 34/85/10 48/56/10
f 9/30/10 7/29/10 62/57/10 76/80/10
f 117/86/18 125/87/18 131/88/18 26/89/18
f 17/50/7 18/73/7 40/74/7 132/51/7
f 22/66/7 23/42/7 110/45/7 96/67/7
f 25/75/19 28/90/19 29/91/19 31/92/19
f 26/93/20 30/94/20 29/91/20 28/90/20
f 27/95/21 31/92/21 29/91/21 30/94/21
f 32/96/22 35/97/22 36/98/22 38/99/22
f 33/100/23 37/101/23 36/98/23 35/97/23
f 34/85/24 38/99/24 36/98/24 37/101/24
f 39/102/25 42/103/25 43/104/25 45/105/25
f 40/74/26 44/106/26 43/104/26 42/103/26
f 41/107/27 45/105/27 43/104/27 44/106/27
f 46/108/28 49/109/28 50/110/28 52/111/28
f 47/112/29 51/113/29 50/110/29 49/109/29
f 48/56/30 52/111/30 50/110/30 51/113/30
f 53/114/31 56/115/31 57/116/31 59/117/31
f 54/72/32 58/118/32 57/116/32 56/115/32
f 55/119/33 59/117/33 57/116/33 58/118/33
f 60/120/34 63/121/34 64/122/34 66/123/34
f 61/124/35 65/125/35 64/122/35 63/121/35
f 62/57/36 66/123/36 64/122/36 65/125/36
f 67/108/37 70/126/37 71/127/37 73/128/37
f 68/70/38 72/129/38 71/127/38 70/126/38
f 69/130/39 73/128/39 71/127/39 72/129/39
f 74/131/40 77/132/40 78/133/40 80/134/40
f 75/135/41 79/136/41 78/133/41 77/132/41
f 76/80/42 80/134/42 78/133/42 79/136/42
f 81/137/43 84/138/43 85/139/43 87/140/43
f 82/68/44 86/141/44 85/139/44 84/138/44
f 83/142/45 87/140/45 85/139/45 86/141/45
f 88/143/46 91/144/46 92/145/46 94/146/46
f 89/147/47 93/148/47 92/145/47 91/144/47
f 90/64/48 94/146/48 92/145/48 93/148/48
f 95/149/49 98/150/49 99/151/49 101/152/49
f 96/67/50 100/153/50 99/151/50 98/150/50
f 97/154/51 101/152/51 99/151/51 100/153/51
f 102/155/52 105/156/52 106/157/52 108/158/52
f 103/159/53 107/160/53 106/157/53 105/156/53
f 104/62/54 108/158/54 106/157/54 107/160/54
f 109/161/55 112/162/55 113/163/55 115/164/55
f 110/45/56 114/165/56 113/163/56 112/162/56
f 111/166/57 115/164/57 113/163/57 114/165/57
f 116/167/58 119/168/58 120/169/58 122/170/58
f 117/171/59 121/172/59 120/169/59 119/168/59
f 118/63/60 122/170/60 120/169/60 121/172/60
f 123/173/61 126/174/61 127/175/61 129/176/61
f 124/44/62 128/177/62 127/175/62 126/174/62
f 125/178/63 129/176/63 127/175/63 128/177/63
f 130/179/64 133/180/64 134/181/64 136/182/64
f 131/183/65 135/184/65 134/181/65 133/180/65
f 132/51/66 136/182/66 134/181/66 135/184/66
f 27/95/67 32/96/67 38/99/67 31/92/67
f 31/92/68 38/99/68 34/85/68 25/75/68
f 41/47/69 33/46/69 35/185/69 45/186/69
f 45/186/70 35/185/70 32/61/70 39/60/70
f 33/100/71 46/108/71 52/111/71 37/101/71
f 37/101/72 52/111/72 48/56/72 34/85/72
f 55/82/73 47/81/73 49/187/73 59/188/73
f 59/188/74 49/187/74 46/49/74 53/48/74
f 47/112/75 60/120/75 66/123/75 51/113/75
f 51/113/76 66/123/76 62/57/76 48/56/76
f 69/53/77 61/52/77 63/189/77 73/190/77
f 73/191/78 63/192/78 60/84/78 67/83/78
f 61/124/79 74/131/79 80/134/79 65/125/79
f 65/125/80 80/134/80 76/80/80 62/57/80
f 83/77/81 75/76/81 77/193/81 87/194/81
f 87/194/82 77/193/82 74/55/82 81/54/82
f 75/135/83 88/143/83 94/146/83 79/136/83
f 79/136/84 94/146/84 90/64/84 76/80/84
f 97/195/85 89/196/85 91/197/85 101/198/85
f 101/198/86 91/197/86 88/79/86 95/78/86
f 89/147/87 102/155/87 108/158/87 93/148/87
f 93/148/88 108/158/88 104/62/88 90/64/88
f 111/39/89 103/38/89 105/199/89 115/200/89
f 115/200/90 105/199/90 102/37/90 109/36/90
f 103/159/91 116/167/91 122/170/91 107/160/91
f 107/160/92 122/170/92 118/63/92 104/62/92
f 125/87/93 117/86/93 119/201/93 129/202/93
f 129/202/94 119/201/94 116/41/94 123/40/94
f 117/171/95 26/93/95 28/90/95 121/172/95
f 121/172/96 28/90/96 25/75/96 118/63/96
f 26/89/97 131/88/97 133/203/97 30/204/97
f 30/205/98 133/206/98 130/59/98 27/58/98
f 124/44/99 132/51/99 135/184/99 128/177/99
f 128/177/100 135/184/100 131/183/100 125/178/100
f 110/45/101 124/44/101 126/174/101 114/165/101
f 114/165/102 126/174/102 123/173/102 111/166/102
f 96/67/103 110/45/103 112/162/103 100/153/103
f 100/153/104 112/162/104 109/161/104 97/154/104
f 82/68/105 96/67/105 98/150/105 86/141/105
f 86/141/106 98/150/106 95/149/106 83/142/106
f 68/70/107 82/68/107 84/138/107 72/129/107
f 72/129/108 84/138/108 81/137/108 69/130/108
f 54/72/109 68/70/109 70/126/109 58/118/109
f 58/118/110 70/126/110 67/108/110 55/119/110
f 40/74/111 54/72/111 56/115/111 44/106/111
f 44/106/112 56/115/112 53/114/112 41/107/112
f 132/51/113 40/74/113 42/103/113 136/182/113
f 136/182/114 42/103/114 39/102/114 130/179/114
f 3/27/10 1/26/10 25/75/10 34/85/10
f 24/207/7 144/208/7 137/209/7 17/210/7
f 23/211/7 143/212/7 144/208/7 24/207/7
f 22/213/7 142/214/7 143/212/7 23/211/7
f 21/215/7 141/216/7 142/214/7 22/213/7
f 20/217/7 140/218/7 141/216/7 21/215/7
f 19/219/7 139/220/7 140/218/7 20/217/7
f 18/221/7 138/222/7 139/220/7 19/219/7
f 17/210/7 137/209/7 138/222/7 18/221/7
f 142/223/115 141/224/115 160/225/115 162/226/115
f 151/227/116 152/228/116 165/229/116 163/230/116
f 143/231/117 142/223/117 162/226/117 164/232/117
f 152/228/118 145/233/118 168/234/118 165/229/118
f 144/235/119 143/231/119 164/232/119 166/236/119
f 145/233/120 146/237/120 153/238/120 168/234/120
f 137/239/121 144/235/121 166/236/121 167/240/121
f 146/237/122 147/241/122 155/242/122 153/238/122
f 166/243/123 165/244/123 168/245/123 167/246/123
f 164/247/124 163/248/124 165/244/124 166/243/124
f 162/249/125 161/250/125 163/248/125 164/247/125
f 160/251/126 159/252/126 161/253/126 162/254/126
f 158/255/127 157/256/127 159/252/127 160/251/127
f 156/257/128 155/258/128 157/259/128 158/260/128
f 154/261/129 153/262/129 155/258/129 156/257/129
f 167/263/130 168/264/130 153/262/130 154/261/130
f 150/265/131 151/227/131 163/230/131 161/266/131
f 141/224/132 140/267/132 158/268/132 160/225/132
f 149/269/133 150/265/133 161/266/133 159/270/133
f 140/267/134 139/271/134 156/272/134 158/268/134
f 148/273/135 149/269/135 159/270/135 157/274/135
f 139/271/136 138/275/136 154/276/136 156/272/136
f 147/241/137 148/273/137 157/274/137 155/242/137
f 138/275/138 137/239/138 167/240/138 154/276/138
f 152/277/139 176/278/139 169/279/139 145/280/139
f 151/281/140 175/282/140 176/278/140 152/277/140
f 150/283/141 174/284/141 175/282/141 151/281/141
f 149/285/142 173/286/142 174/287/142 150/288/142
f 148/289/143 172/290/143 173/286/143 149/285/143
f 147/291/144 171/292/144 172/293/144 148/294/144
f 146/295/145 170/296/145 171/292/145 147/291/145
f 145/297/146 169/298/146 170/296/146 146/295/146
f 179/299/146 178/300/146 177/301/146 186/302/146
f 186/302/145 177/301/145 180/303/145 187/304/145
f 187/304/144 180/303/144 181/305/144 188/306/144
f 188/307/143 181/308/143 182/309/143 189/310/143
f 189/310/142 182/309/142 183/311/142 190/312/142
f 190/313/141 183/314/141 184/315/141 191/316/141
f 191/316/140 184/315/140 185/317/140 192/318/140
f 192/318/139 185/317/139 178/319/139 179/320/139
f 16/16/147 2/1/147 178/4/147 185/17/147
f 171/10/148 170/321/148 186/322/148 187/11/148
f 170/321/149 169/323/149 179/324/149 186/322/149
f 10/6/150 12/21/150 183/325/150 182/7/150
f 169/323/151 176/326/151 192/327/151 179/324/151
f 4/2/152 6/22/152 180/23/152 177/3/152
f 176/326/153 175/24/153 191/25/153 192/327/153
f 12/21/154 14/15/154 184/18/154 183/325/154
